<svg width="55" height="57" viewBox="0 0 55 57" fill="none" xmlns="http://www.w3.org/2000/svg">
<path d="M9.54656 36.7333H5.70813H1.64062V7.38019C1.64062 2.46008 3.97476 0 8.64302 0H12.8219C15.5702 0 17.5278 0.894571 18.6949 2.68373C19.7867 0.894571 21.7443 0 24.5679 0H28.7468C33.415 0 35.7492 2.46008 35.7492 7.38019V28.1914L27.8432 36.7333V6.70928C27.8432 6.41111 27.7303 6.15017 27.5044 5.92652C27.3161 5.70287 27.0714 5.59107 26.7703 5.59107H23.7208C23.4196 5.59107 23.1561 5.70287 22.9302 5.92652C22.742 6.15017 22.6479 6.41111 22.6479 6.70928V36.7333H18.8192H14.7419V6.70928C14.7419 6.41111 14.629 6.15017 14.4031 5.92652C14.2149 5.70287 13.9701 5.59107 13.669 5.59107H10.6195C10.3183 5.59107 10.0548 5.70287 9.82893 5.92652C9.6407 6.15017 9.54656 6.41111 9.54656 6.70928V36.7333Z" fill="white"/>
<path d="M43.2185 5.15293C45.3714 4.84013 47.0145 5.1872 48.0557 6.1961C49.097 7.20503 49.4831 8.82422 49.2141 10.9628C49.0313 12.416 48.5482 14.091 47.7837 15.9402C47.4553 16.7343 47.0754 17.5597 46.6458 18.4118C43.7196 24.2165 38.6428 30.9807 32.3502 37.3493C26.0579 43.7178 19.3397 48.8913 13.543 51.9152C12.6518 52.3801 11.7893 52.7902 10.9603 53.1436C9.15414 53.9135 7.51199 54.4117 6.07839 54.62C3.92533 54.9325 2.2824 54.5855 1.24125 53.5767C0.199976 52.5678 -0.186128 50.9487 0.082813 48.8102C0.344005 46.7333 1.2196 44.2003 2.65107 41.3608C3.20033 40.2713 3.82536 39.148 4.51997 37.9999L7.52573 38C6.53214 39.5489 5.66482 41.0543 4.93983 42.4924C3.62759 45.0954 2.84214 47.3676 2.62134 49.1233C2.44218 50.5479 2.6432 51.3909 3.03027 51.7659C3.41731 52.1409 4.27294 52.3216 5.70728 52.1134C6.89976 51.9402 8.33379 51.5051 9.94896 50.8166C10.7148 50.4902 11.5173 50.1086 12.3508 49.6738C17.8946 46.7818 24.4051 41.7683 30.5217 35.5775C36.6387 29.3867 41.5584 22.8318 44.357 17.2803C44.759 16.483 45.1126 15.7147 45.4163 14.9803C46.1009 13.3244 46.5234 11.8595 46.6756 10.6496C46.8548 9.22498 46.6538 8.38192 46.2667 8.00689L46.225 7.96878C45.8199 7.61978 44.9746 7.45824 43.5898 7.65943C41.8221 7.91625 39.5453 8.74338 36.9462 10.0992L37.0278 10.0569L37.028 7.38012C37.028 7.3271 37.0277 7.27436 37.0272 7.22192C39.3514 6.11246 41.4456 5.41049 43.2185 5.15293ZM16.0208 23.3726L16.0211 27.0946C14.132 29.1643 12.3889 31.2505 10.825 33.3042L10.8248 29.1998C12.4259 27.2523 14.1663 25.2976 16.0208 23.3726ZM29.1222 11.9685L29.1221 15.1136C27.4088 16.395 25.6672 17.8092 23.9269 19.3357L23.927 15.9862C25.6726 14.5267 27.4133 13.1811 29.1222 11.9685Z" fill="white"/>
<path opacity="0.7" d="M49.3103 14.9807C50.0058 15.1185 50.5794 15.4013 51.0207 15.8291C51.8735 16.6557 52.1907 17.9826 51.97 19.7362C51.7562 21.4383 51.0384 23.5146 49.8647 25.843C47.4654 30.6019 43.3038 36.1468 38.1457 41.3672C32.9872 46.5881 27.4798 50.8293 22.7282 53.3078C20.4034 54.5204 18.3228 55.2762 16.6091 55.5249C14.8431 55.7814 13.4968 55.4964 12.6438 54.67C12.4101 54.4437 12.2167 54.1798 12.0635 53.8798L11.8125 53.9881C12.632 53.6388 13.4844 53.2339 14.3648 52.7756C14.3864 52.8083 14.409 52.8362 14.4326 52.859C14.632 53.0522 15.1907 53.1705 16.238 53.0183C17.6283 52.8166 19.4475 52.1557 21.5361 51.0664C26.0347 48.7198 31.3344 44.6386 36.3173 39.5954C41.2997 34.5529 45.3043 29.2171 47.5759 24.7115C48.6303 22.6197 49.258 20.8042 49.4315 19.4232C49.5623 18.3833 49.4307 17.8328 49.2313 17.6395L49.2056 17.6167C49.0683 17.5042 48.7986 17.4217 48.3684 17.4119C48.4612 17.2007 48.5503 16.9917 48.6358 16.7847C48.8652 16.23 49.0692 15.6909 49.2474 15.1688L49.3103 14.9807Z" fill="white"/>
<path opacity="0.3" d="M51.7422 24.0164C52.6576 24.0335 53.3799 24.2879 53.8864 24.7784C54.5739 25.4444 54.8305 26.5139 54.6523 27.9298C54.48 29.3025 53.9011 30.977 52.9545 32.8552C51.0192 36.6935 47.6627 41.1656 43.5027 45.3755C39.3423 49.5863 34.9005 53.007 31.0681 55.0061C29.1926 55.9841 27.5147 56.5937 26.133 56.7941C24.7073 57.0012 23.6223 56.7706 22.9349 56.1047C22.512 55.695 22.2522 55.1326 22.1562 54.4306C22.6202 54.2175 23.0959 53.9838 23.5822 53.7301C23.9603 53.5329 24.3432 53.3245 24.7304 53.1053C24.7216 53.1599 24.7141 53.2136 24.7075 53.2663C24.654 53.6918 24.6634 54.0045 24.7128 54.2103L24.7315 54.2856L24.8085 54.3029C25.0173 54.3473 25.3333 54.3499 25.762 54.2876C26.8202 54.1341 28.2369 53.6194 29.876 52.7646C33.4554 50.8975 37.6895 47.6369 41.6743 43.6037C45.6587 39.5716 48.8582 35.3087 50.6657 31.7237C51.493 30.0822 51.9817 28.6684 52.1138 27.6169C52.1673 27.1913 52.1579 26.8786 52.1086 26.6729L52.0895 26.5971L52.0127 26.5802C51.8039 26.5357 51.488 26.5332 51.0595 26.5954C50.8809 26.6214 50.692 26.6576 50.4936 26.704C50.5704 26.5569 50.6454 26.4107 50.7187 26.2653C51.096 25.5169 51.4261 24.7945 51.7076 24.1023L51.7422 24.0164Z" fill="white"/>
</svg>
